<mxfile host="app.diagrams.net" modified="2023-05-28T10:31:59.067Z" agent="Mozilla/5.0 (Windows NT 10.0; Win64; x64; rv:109.0) Gecko/20100101 Firefox/113.0" etag="A23WjpMelleT4VAmQdVL" version="21.1.1" type="device">
  <diagram name="Page-1" id="u0Mc1gfL4I80AY2Bdu5U">
    <mxGraphModel dx="784" dy="430" grid="1" gridSize="10" guides="1" tooltips="1" connect="1" arrows="1" fold="1" page="1" pageScale="1" pageWidth="850" pageHeight="1100" math="0" shadow="0">
      <root>
        <mxCell id="0" />
        <mxCell id="1" parent="0" />
        <mxCell id="mTshDOOx0HzaTm9Lg6rU-3" style="edgeStyle=orthogonalEdgeStyle;rounded=0;orthogonalLoop=1;jettySize=auto;html=1;exitX=1;exitY=0.5;exitDx=0;exitDy=0;exitPerimeter=0;strokeColor=#647687;" edge="1" parent="1" source="mTshDOOx0HzaTm9Lg6rU-1" target="mTshDOOx0HzaTm9Lg6rU-9">
          <mxGeometry relative="1" as="geometry">
            <mxPoint x="290" y="460" as="targetPoint" />
          </mxGeometry>
        </mxCell>
        <mxCell id="mTshDOOx0HzaTm9Lg6rU-1" value="" style="sketch=0;points=[[0.5,0,0],[1,0.5,0],[0.5,1,0],[0,0.5,0],[0.145,0.145,0],[0.8555,0.145,0],[0.855,0.8555,0],[0.145,0.855,0]];verticalLabelPosition=bottom;html=1;verticalAlign=top;aspect=fixed;align=center;pointerEvents=1;shape=mxgraph.cisco19.rect;prIcon=router;fillColor=#FAFAFA;strokeColor=#647687;" vertex="1" parent="1">
          <mxGeometry x="230" y="410" width="30" height="30" as="geometry" />
        </mxCell>
        <mxCell id="mTshDOOx0HzaTm9Lg6rU-2" value="" style="sketch=0;points=[[0.015,0.015,0],[0.985,0.015,0],[0.985,0.985,0],[0.015,0.985,0],[0.25,0,0],[0.5,0,0],[0.75,0,0],[1,0.25,0],[1,0.5,0],[1,0.75,0],[0.75,1,0],[0.5,1,0],[0.25,1,0],[0,0.75,0],[0,0.5,0],[0,0.25,0]];verticalLabelPosition=bottom;html=1;verticalAlign=top;aspect=fixed;align=center;pointerEvents=1;shape=mxgraph.cisco19.server;fillColor=#647687;strokeColor=#314354;fontColor=#ffffff;" vertex="1" parent="1">
          <mxGeometry x="360" y="400" width="27.500000000000004" height="50" as="geometry" />
        </mxCell>
        <mxCell id="mTshDOOx0HzaTm9Lg6rU-4" value="" style="sketch=0;pointerEvents=1;shadow=0;dashed=0;html=1;strokeColor=none;fillColor=#647687;aspect=fixed;labelPosition=center;verticalLabelPosition=bottom;verticalAlign=top;align=center;outlineConnect=0;shape=mxgraph.vvd.monitor;fontColor=#ffffff;" vertex="1" parent="1">
          <mxGeometry x="400" y="320" width="96.77" height="90" as="geometry" />
        </mxCell>
        <mxCell id="mTshDOOx0HzaTm9Lg6rU-5" value="" style="endArrow=none;dashed=1;html=1;dashPattern=1 3;strokeWidth=2;rounded=0;exitX=-0.007;exitY=-0.038;exitDx=0;exitDy=0;exitPerimeter=0;strokeColor=#647687;" edge="1" parent="1" source="mTshDOOx0HzaTm9Lg6rU-2">
          <mxGeometry width="50" height="50" relative="1" as="geometry">
            <mxPoint x="330" y="450" as="sourcePoint" />
            <mxPoint x="400" y="320" as="targetPoint" />
          </mxGeometry>
        </mxCell>
        <mxCell id="mTshDOOx0HzaTm9Lg6rU-6" value="" style="endArrow=none;dashed=1;html=1;dashPattern=1 3;strokeWidth=2;rounded=0;exitX=0.985;exitY=0.985;exitDx=0;exitDy=0;exitPerimeter=0;strokeColor=#647687;" edge="1" parent="1" source="mTshDOOx0HzaTm9Lg6rU-2">
          <mxGeometry width="50" height="50" relative="1" as="geometry">
            <mxPoint x="379.5" y="439" as="sourcePoint" />
            <mxPoint x="472" y="409" as="targetPoint" />
          </mxGeometry>
        </mxCell>
        <mxCell id="mTshDOOx0HzaTm9Lg6rU-8" value="" style="image;aspect=fixed;perimeter=ellipsePerimeter;html=1;align=center;shadow=0;dashed=0;spacingTop=3;image=img/lib/active_directory/user_accounts.svg;" vertex="1" parent="1">
          <mxGeometry x="406" y="338" width="39.69" height="38.5" as="geometry" />
        </mxCell>
        <mxCell id="mTshDOOx0HzaTm9Lg6rU-9" value="" style="sketch=0;pointerEvents=1;shadow=0;dashed=0;html=1;strokeColor=none;fillColor=#647687;aspect=fixed;labelPosition=center;verticalLabelPosition=bottom;verticalAlign=top;align=center;outlineConnect=0;shape=mxgraph.vvd.ethernet_port;" vertex="1" parent="1">
          <mxGeometry x="334" y="415" width="20" height="20" as="geometry" />
        </mxCell>
        <mxCell id="mTshDOOx0HzaTm9Lg6rU-10" value="" style="sketch=0;pointerEvents=1;shadow=0;dashed=0;html=1;strokeColor=none;fillColor=#647687;aspect=fixed;labelPosition=center;verticalLabelPosition=bottom;verticalAlign=top;align=center;outlineConnect=0;shape=mxgraph.vvd.app;" vertex="1" parent="1">
          <mxGeometry x="451" y="337.25" width="40" height="40" as="geometry" />
        </mxCell>
        <mxCell id="mTshDOOx0HzaTm9Lg6rU-11" value="" style="shape=curlyBracket;whiteSpace=wrap;html=1;rounded=1;flipH=1;labelPosition=right;verticalLabelPosition=middle;align=left;verticalAlign=middle;rotation=90;" vertex="1" parent="1">
          <mxGeometry x="284" y="394" width="20" height="120" as="geometry" />
        </mxCell>
        <mxCell id="mTshDOOx0HzaTm9Lg6rU-12" value="Сетевой уровень" style="text;html=1;strokeColor=none;fillColor=none;align=center;verticalAlign=middle;whiteSpace=wrap;rounded=0;" vertex="1" parent="1">
          <mxGeometry x="225" y="456" width="136" height="30" as="geometry" />
        </mxCell>
        <mxCell id="mTshDOOx0HzaTm9Lg6rU-13" value="Прикладной уровень" style="text;html=1;strokeColor=none;fillColor=none;align=center;verticalAlign=middle;whiteSpace=wrap;rounded=0;" vertex="1" parent="1">
          <mxGeometry x="415" y="443" width="136" height="30" as="geometry" />
        </mxCell>
        <mxCell id="mTshDOOx0HzaTm9Lg6rU-15" value="" style="endArrow=classic;html=1;rounded=0;entryX=0.5;entryY=0;entryDx=0;entryDy=0;" edge="1" parent="1">
          <mxGeometry width="50" height="50" relative="1" as="geometry">
            <mxPoint x="482" y="452" as="sourcePoint" />
            <mxPoint x="478" y="378" as="targetPoint" />
          </mxGeometry>
        </mxCell>
        <mxCell id="mTshDOOx0HzaTm9Lg6rU-16" value="Административный уровен" style="text;html=1;strokeColor=none;fillColor=none;align=center;verticalAlign=middle;whiteSpace=wrap;rounded=0;" vertex="1" parent="1">
          <mxGeometry x="230" y="330" width="136" height="30" as="geometry" />
        </mxCell>
        <mxCell id="mTshDOOx0HzaTm9Lg6rU-17" value="" style="endArrow=classic;html=1;rounded=0;" edge="1" parent="1">
          <mxGeometry width="50" height="50" relative="1" as="geometry">
            <mxPoint x="326" y="350.87" as="sourcePoint" />
            <mxPoint x="406" y="363.62" as="targetPoint" />
          </mxGeometry>
        </mxCell>
      </root>
    </mxGraphModel>
  </diagram>
</mxfile>
